<svg width="21" height="21" viewBox="0 0 21 21" fill="none" xmlns="http://www.w3.org/2000/svg">
<path d="M18.6701 7.87592L18.5951 7.57592C18.495 7.28482 18.3636 7.00541 18.2034 6.74259C17.8375 6.13162 17.3135 5.63069 16.6867 5.29259L12.3117 2.92592C11.7332 2.61805 11.0879 2.45703 10.4326 2.45703C9.77721 2.45703 9.13191 2.61805 8.55339 2.92592L4.17839 5.29259C3.5516 5.63069 3.02763 6.13162 2.66172 6.74259C2.49901 7.00293 2.37019 7.28297 2.27839 7.57592V7.69259C2.18526 8.02632 2.1376 8.3711 2.13672 8.71759V15.0676C2.13892 16.1167 2.55667 17.1223 3.29852 17.8641C4.04037 18.606 5.04591 19.0237 6.09505 19.0259H14.8451C15.3649 19.0259 15.8796 18.9235 16.3598 18.7246C16.8401 18.5257 17.2765 18.2341 17.644 17.8666C18.0116 17.499 18.3032 17.0626 18.5021 16.5824C18.701 16.1021 18.8034 15.5874 18.8034 15.0676V8.70926C18.7885 8.42755 18.7438 8.14821 18.6701 7.87592ZM11.7867 10.6676C11.3737 10.9013 10.9071 11.0241 10.4326 11.0241C9.95796 11.0241 9.49145 10.9013 9.07839 10.6676L3.63672 7.51759C3.66172 7.45426 3.69255 7.39259 3.72839 7.33426C3.97989 6.91586 4.3398 6.57323 4.77005 6.34259L9.14505 3.97592C9.53871 3.76144 9.98009 3.64966 10.4284 3.65092C10.8793 3.64969 11.3234 3.76142 11.7201 3.97592L16.0951 6.34259C16.6098 6.62089 17.0195 7.05985 17.2617 7.59259L11.7867 10.6676Z" fill="#5E17EB"/>
</svg>
