<svg width="21" height="21" viewBox="0 0 21 21" fill="none" xmlns="http://www.w3.org/2000/svg">
<path fill-rule="evenodd" clip-rule="evenodd" d="M15.4697 3.24219C16.1328 3.24219 16.7687 3.50558 17.2375 3.97442C17.7063 4.44326 17.9697 5.07915 17.9697 5.74219V15.7422C17.9697 16.4052 17.7063 17.0411 17.2375 17.51C16.7687 17.9788 16.1328 18.2422 15.4697 18.2422H5.46973C4.80669 18.2422 4.1708 17.9788 3.70196 17.51C3.23312 17.0411 2.96973 16.4052 2.96973 15.7422V5.74219C2.96973 5.07915 3.23312 4.44326 3.70196 3.97442C4.1708 3.50558 4.80669 3.24219 5.46973 3.24219H15.4697ZM7.13639 9.07552C6.91538 9.07552 6.70342 9.16332 6.54714 9.3196C6.39086 9.47588 6.30306 9.68784 6.30306 9.90885V14.0755C6.30306 14.2965 6.39086 14.5085 6.54714 14.6648C6.70342 14.8211 6.91538 14.9089 7.13639 14.9089C7.35741 14.9089 7.56937 14.8211 7.72565 14.6648C7.88193 14.5085 7.96973 14.2965 7.96973 14.0755V9.90885C7.96973 9.68784 7.88193 9.47588 7.72565 9.3196C7.56937 9.16332 7.35741 9.07552 7.13639 9.07552ZM9.63639 8.24219C9.41538 8.24219 9.20342 8.32999 9.04714 8.48627C8.89086 8.64255 8.80306 8.85451 8.80306 9.07552V14.0755C8.80306 14.2965 8.89086 14.5085 9.04714 14.6648C9.20342 14.8211 9.41538 14.9089 9.63639 14.9089C9.85741 14.9089 10.0694 14.8211 10.2256 14.6648C10.3819 14.5085 10.4697 14.2965 10.4697 14.0755V11.0255C10.7239 10.7389 11.1531 10.4022 11.6306 10.198C11.9081 10.0797 12.3256 10.0314 12.6156 10.123C12.7118 10.1474 12.7974 10.2024 12.8597 10.2797C12.9031 10.338 12.9697 10.468 12.9697 10.7422V14.0755C12.9697 14.2965 13.0575 14.5085 13.2138 14.6648C13.3701 14.8211 13.582 14.9089 13.8031 14.9089C14.0241 14.9089 14.236 14.8211 14.3923 14.6648C14.5486 14.5085 14.6364 14.2965 14.6364 14.0755V10.7422C14.6364 10.1839 14.4947 9.68719 14.1997 9.28885C13.9283 8.92765 13.5484 8.66279 13.1156 8.53302C12.3639 8.29719 11.5314 8.42802 10.9756 8.66635C10.7976 8.74289 10.6243 8.8297 10.4564 8.92635C10.4215 8.73434 10.3202 8.56069 10.1704 8.43566C10.0205 8.31063 9.83155 8.24216 9.63639 8.24219ZM7.13639 6.57552C6.91538 6.57552 6.70342 6.66332 6.54714 6.8196C6.39086 6.97588 6.30306 7.18784 6.30306 7.40885C6.30306 7.62987 6.39086 7.84183 6.54714 7.99811C6.70342 8.15439 6.91538 8.24219 7.13639 8.24219C7.35741 8.24219 7.56937 8.15439 7.72565 7.99811C7.88193 7.84183 7.96973 7.62987 7.96973 7.40885C7.96973 7.18784 7.88193 6.97588 7.72565 6.8196C7.56937 6.66332 7.35741 6.57552 7.13639 6.57552Z" fill="#5E17EB"/>
</svg>
